<svg xmlns="http://www.w3.org/2000/svg" viewBox="0 0 96.236 104.994"><g id="Layer_2" data-name="Layer 2"><g id="Layer_1-2" data-name="Layer 1"><path d="M15.075,13.449a8.686,8.686,0,0,0-1.369,1.217c-.47.639-.091,1.237.386,1.717,2.06,2.078,4.123,4.155,6.208,6.207a1.606,1.606,0,0,0,2.416.208,1.661,1.661,0,0,0-.2-2.441q-3.053-3.084-6.142-6.129A7.454,7.454,0,0,0,15.075,13.449Zm67.66,1.71c-.345-.485-.578-1.172-.978-1.289A2.123,2.123,0,0,0,80,14.145c-2.189,2.051-4.282,4.2-6.4,6.333a1.538,1.538,0,0,0-.276,2.048c.588.942,1.715.947,2.681-.006q3.022-2.98,5.995-6.012A6.163,6.163,0,0,0,82.735,15.159Zm7.444,34.575c1.429,0,2.859.007,4.288,0,1.116-.008,1.754-.567,1.769-1.522.016-1.026-.533-1.554-1.7-1.56q-4.39-.02-8.781,0a1.732,1.732,0,0,0-1.816,1.432,1.77,1.77,0,0,0,1.847,1.647C87.252,49.745,88.715,49.734,90.179,49.734Zm-84.14,0c1.5,0,2.993.015,4.489-.006A1.4,1.4,0,0,0,12.1,48.26c.018-1.052-.455-1.6-1.52-1.6q-4.488-.034-8.977,0C.522,46.66-.01,47.208,0,48.2A1.5,1.5,0,0,0,1.653,49.73C3.115,49.746,4.577,49.734,6.039,49.734Zm3.8-18.251c-.491.494-1.155.878-1.314,1.412a1.7,1.7,0,0,0,.577,1.534A24.29,24.29,0,0,0,13.035,36a1.333,1.333,0,0,0,1.622-.923,1.31,1.31,0,0,0-.515-1.788C12.819,32.64,11.422,32.136,9.842,31.483ZM64.774,9.978c-.422-.509-.7-1.148-1.146-1.312a1.42,1.42,0,0,0-1.933.65A37.2,37.2,0,0,0,60.237,12.9,1.372,1.372,0,0,0,61.3,14.705a1.858,1.858,0,0,0,1.65-.48A42,42,0,0,0,64.774,9.978ZM36.048,13.245c-.542-1.374-1.017-2.781-1.653-4.111A1.325,1.325,0,0,0,32.5,8.713a1.876,1.876,0,0,0-.878,1.511,17.879,17.879,0,0,0,1.541,3.861,1.846,1.846,0,0,0,1.472.688A1.487,1.487,0,0,0,36.048,13.245ZM87.829,33.46c-.207-1.393-1.072-2.027-2.255-1.627-1,.338-1.975.73-2.948,1.132a1.6,1.6,0,0,0-1.1,2.022,1.583,1.583,0,0,0,2.181.919,22.113,22.113,0,0,0,3.018-1.219C87.184,34.448,87.467,33.879,87.829,33.46Z" fill="#fefefe"/><path d="M60.6,104.773v.221H30.312a5.416,5.416,0,0,1-.616-3.323c.016-2.762,0-5.524.006-8.286,0-1.666.212-1.882,1.866-1.909l27.2-.026L60.6,91.5Z" fill="#e5e1e5"/><path d="M48.732,0a2.558,2.558,0,0,1,1,2.215c-.015,2.623,0,5.245-.014,7.868,0,.4.012.928-.219,1.172a2.7,2.7,0,0,1-1.509.941c-.408.028-.958-.52-1.259-.944a2.383,2.383,0,0,1-.217-1.281c-.017-2.589.015-5.177-.021-7.765A2.552,2.552,0,0,1,47.5,0Z" fill="#fee17a"/><path d="M58.766,91.45l-27.2.026c-.006-2.25-.038-4.5-.012-6.75a9.583,9.583,0,0,0-2.279-6.405C26.1,74.5,24.486,70,23.338,65.255c-.931-3.853-.792-7.751-.793-11.651,0-2.932.022-5.863.035-8.794a2.243,2.243,0,0,1,.48.472,4.847,4.847,0,0,0,4.8,2.809,3.805,3.805,0,0,0,2.994-1.284,25.151,25.151,0,0,0,1.71-2.6c0,.34.021.682,0,1.021a4.958,4.958,0,0,0,5.125,5.112,4.836,4.836,0,0,0,4.709-3.874,18.779,18.779,0,0,1,.185,2.285A4.425,4.425,0,0,0,44.8,52.742c.894.592,1.907,1.247,3.117.7,2.52.224,4.729-2.511,4.5-4.724a6.016,6.016,0,0,1,.728.871,4.333,4.333,0,0,0,3.16,2.4,3.519,3.519,0,0,1-.52.461,24.1,24.1,0,0,0-7.581,6.572,63.151,63.151,0,0,0-3.875,6.565,1.5,1.5,0,0,0,.872,2.024,1.451,1.451,0,0,0,1.946-.8c.464-.872.817-1.812,1.348-2.639a33.1,33.1,0,0,1,2.819-3.983,24.406,24.406,0,0,1,10.486-7.019,2.26,2.26,0,0,0,1.2-1.235,32.746,32.746,0,0,0,1.047-3.932c.219-.994-.115-1.495-1.108-1.716-1.386-.31-2.787-.56-4.182-.835l-6.147-1.228-3.883-1.453a8.831,8.831,0,0,1-2.771-4.525c-.483-2.49.279-4.368,2.778-4.283l3.87,0,6.159,0,3.678-.18.829.229L63.663,34h.423a5.548,5.548,0,0,0,.808.68,7.461,7.461,0,0,1,3.028,3.084,13.438,13.438,0,0,1,1.687,6.125c.041,3.765.137,7.539-.072,11.294-.161,2.892-.762,5.758-1.154,8.637a18.9,18.9,0,0,1-3.108,8.429c-1.394,1.994-3.013,3.835-4.564,5.717a7.382,7.382,0,0,0-1.951,4.8Q58.769,87.1,58.766,91.45Z" fill="#fec79e"/><path d="M58.766,91.45q0-4.346-.006-8.691a7.382,7.382,0,0,1,1.951-4.8c1.551-1.882,3.17-3.723,4.564-5.717a18.9,18.9,0,0,0,3.108-8.429c.392-2.879.993-5.745,1.154-8.637.209-3.755.113-7.529.072-11.294a13.438,13.438,0,0,0-1.687-6.125,7.461,7.461,0,0,0-3.028-3.084,5.548,5.548,0,0,1-.808-.68,7.252,7.252,0,0,1,6.141,1.827,10.06,10.06,0,0,1,2.644,5.188,31.587,31.587,0,0,1,.658,10.509c-.409,3.759-.813,7.519-1.265,11.274A31.147,31.147,0,0,1,64.9,79.268a9.377,9.377,0,0,0-2.454,6.793c.1,1.8.017,3.61.017,5.416L60.6,91.5Z" fill="#f6bc94"/><path d="M47.919,53.442c-1.21.547-2.223-.108-3.117-.7a4.425,4.425,0,0,1-2.223-3.989,18.779,18.779,0,0,0-.185-2.285,11.857,11.857,0,0,0,.189-1.5c.015-4.382.033-8.766-.009-13.148a25.008,25.008,0,0,0-.377-2.99q.192-1.056.385-2.112a4.867,4.867,0,0,1,3.3-3.966,2.055,2.055,0,0,0,.353.351,4.992,4.992,0,0,1,2.51,4.747c-.042,2.035,0,4.071,0,6.106-2.5-.085-3.261,1.793-2.778,4.283a8.838,8.838,0,0,0,2.771,4.526c0,1.926-.03,3.854.007,5.779A9.246,9.246,0,0,1,47.919,53.442Z" fill="#f3b084"/><path d="M37.685,50.342A4.958,4.958,0,0,1,32.56,45.23c.024-.339,0-.681,0-1.021l-.009-10.271q0-1.532,0-3.063a4.977,4.977,0,0,1,3.489-5.048,5.643,5.643,0,0,0,.59.651,5.513,5.513,0,0,1,2.1,4.715c-.1,5.272-.059,10.548-.018,15.823A5.3,5.3,0,0,1,37.685,50.342Z" fill="#f3b084"/><path d="M27.859,48.091a4.847,4.847,0,0,1-4.8-2.809,2.243,2.243,0,0,0-.48-.472c-.01-3.266-.064-6.532-.014-9.8A4.711,4.711,0,0,1,26,30.471c.056.085.091.2.169.251a5.835,5.835,0,0,1,2.72,5.543c-.048,2.176-.035,4.354,0,6.53A9.884,9.884,0,0,1,27.859,48.091Z" fill="#f3b084"/><path d="M37.685,50.342a5.3,5.3,0,0,0,1.036-3.326c-.041-5.275-.085-10.551.018-15.823a5.513,5.513,0,0,0-2.1-4.715,5.643,5.643,0,0,1-.59-.651,4.975,4.975,0,0,1,6.149,3,25.008,25.008,0,0,1,.377,2.99c.042,4.382.024,8.766.009,13.148a11.857,11.857,0,0,1-.189,1.5A4.836,4.836,0,0,1,37.685,50.342Z" fill="#e9a678"/><path d="M58.77,33.954H52.611c0-1.6.055-3.2-.008-4.8-.042-1.068-.246-2.13-.378-3.194a15.671,15.671,0,0,0,.182-1.664A5.269,5.269,0,0,1,55.9,19.074c.09.132.151.315.275.388a5.126,5.126,0,0,1,2.591,4.829C58.748,27.512,58.767,30.733,58.77,33.954Z" fill="#f3b084"/><path d="M27.859,48.091a9.884,9.884,0,0,0,1.028-5.3c-.033-2.176-.046-4.354,0-6.53a5.835,5.835,0,0,0-2.72-5.543c-.078-.049-.113-.166-.169-.251,2.774-.618,4.84.144,6.052,2.5.165.321.335.641.5.962l.009,10.271a25.151,25.151,0,0,1-1.71,2.6A3.805,3.805,0,0,1,27.859,48.091Z" fill="#e9a678"/><path d="M58.77,33.954c0-3.221-.022-6.442,0-9.663a5.126,5.126,0,0,0-2.591-4.829c-.124-.073-.185-.256-.275-.388a4.925,4.925,0,0,1,6.558,4.5q0,5.1-.011,10.2Z" fill="#e9a678"/><path d="M60.6,91.5l1.858-.018c1.744.016,1.83.1,1.83,1.858q0,4.944,0,9.887c0,1.276-.285,1.559-1.545,1.566-.713,0-1.426-.009-2.14-.014Q60.6,98.134,60.6,91.5Z" fill="#d7d0d6"/><path d="M52.225,25.964c.132,1.064.336,2.126.378,3.194.063,1.6.011,3.2.008,4.8h-3.87c0-2.035-.041-4.071,0-6.106a4.992,4.992,0,0,0-2.51-4.747,2.055,2.055,0,0,1-.353-.351A4.845,4.845,0,0,1,52.225,25.964Z" fill="#e9a678"/><path d="M15.075,13.449a7.454,7.454,0,0,1,1.3.779q3.1,3.039,6.142,6.129a1.661,1.661,0,0,1,.2,2.441A1.606,1.606,0,0,1,20.3,22.59c-2.085-2.052-4.148-4.129-6.208-6.207-.477-.48-.856-1.078-.386-1.717A8.686,8.686,0,0,1,15.075,13.449Z" fill="#fee27d"/><path d="M82.735,15.159a6.163,6.163,0,0,1-.73,1.349q-2.964,3.039-5.995,6.012c-.966.953-2.093.948-2.681.006a1.538,1.538,0,0,1,.276-2.048c2.114-2.13,4.207-4.282,6.4-6.333a2.123,2.123,0,0,1,1.756-.275C82.157,13.987,82.39,14.674,82.735,15.159Z" fill="#fee27c"/><path d="M90.179,49.734c-1.464,0-2.927.011-4.391,0a1.77,1.77,0,0,1-1.847-1.647,1.732,1.732,0,0,1,1.816-1.432q4.39-.02,8.781,0c1.165.006,1.714.534,1.7,1.56-.015.955-.653,1.514-1.769,1.522C93.038,49.741,91.608,49.734,90.179,49.734Z" fill="#fee17a"/><path d="M6.039,49.734c-1.462,0-2.924.012-4.386,0A1.5,1.5,0,0,1,0,48.2c-.01-.991.522-1.539,1.6-1.546q4.49-.027,8.977,0c1.065.008,1.538.552,1.52,1.6a1.4,1.4,0,0,1-1.573,1.468C9.032,49.749,7.536,49.734,6.039,49.734Z" fill="#fee17a"/><path d="M9.842,31.483c1.58.653,2.977,1.157,4.3,1.809a1.31,1.31,0,0,1,.515,1.788A1.333,1.333,0,0,1,13.035,36a24.29,24.29,0,0,1-3.93-1.574A1.7,1.7,0,0,1,8.528,32.9C8.687,32.361,9.351,31.977,9.842,31.483Z" fill="#fee27c"/><path d="M64.774,9.978a42,42,0,0,1-1.829,4.247,1.858,1.858,0,0,1-1.65.48A1.372,1.372,0,0,1,60.237,12.9,37.2,37.2,0,0,1,61.7,9.316a1.42,1.42,0,0,1,1.933-.65C64.077,8.83,64.352,9.469,64.774,9.978Z" fill="#fee27b"/><path d="M36.048,13.245a1.487,1.487,0,0,1-1.409,1.528,1.846,1.846,0,0,1-1.472-.688,17.879,17.879,0,0,1-1.541-3.861A1.876,1.876,0,0,1,32.5,8.713a1.325,1.325,0,0,1,1.891.421C35.031,10.464,35.506,11.871,36.048,13.245Z" fill="#fee27c"/><path d="M87.829,33.46c-.362.419-.645.988-1.1,1.227a22.113,22.113,0,0,1-3.018,1.219,1.583,1.583,0,0,1-2.181-.919,1.6,1.6,0,0,1,1.1-2.022c.973-.4,1.952-.794,2.948-1.132C86.757,31.433,87.622,32.067,87.829,33.46Z" fill="#fee27c"/><path d="M63.663,34,63.277,34Z" fill="#f6bc94"/><path d="M58.764,45.443c1.395.275,2.8.525,4.182.835.993.221,1.327.722,1.108,1.716a32.746,32.746,0,0,1-1.047,3.932,2.26,2.26,0,0,1-1.2,1.235A24.406,24.406,0,0,0,51.319,60.18,33.1,33.1,0,0,0,48.5,64.163c-.531.827-.884,1.767-1.348,2.639a1.451,1.451,0,0,1-1.946.8,1.5,1.5,0,0,1-.872-2.024,63.151,63.151,0,0,1,3.875-6.565,24.1,24.1,0,0,1,7.581-6.572,3.519,3.519,0,0,0,.52-.461c1.723-.3,2.386-1,2.442-2.672C58.8,48.024,58.763,46.733,58.764,45.443Z" fill="#e9a678"/><path d="M58.764,45.443c0,1.29.031,2.581-.012,3.87-.056,1.675-.719,2.369-2.442,2.672a4.333,4.333,0,0,1-3.16-2.4,6.016,6.016,0,0,0-.728-.871l.2-4.5Z" fill="#f3b084"/><path d="M52.617,44.215l-.2,4.5c.226,2.213-1.983,4.948-4.5,4.724a9.246,9.246,0,0,0,.822-4.9c-.037-1.925-.007-3.853-.007-5.779Z" fill="#e9a678"/></g></g></svg>