<svg xmlns="http://www.w3.org/2000/svg" viewBox="0 0 125.499 101.133"><g id="Layer_2" data-name="Layer 2"><g id="Layer_1-2" data-name="Layer 1"><path d="M101.071,57.87c-.072.566-.137,1.133-.216,1.7-.6,4.32-1.576,8.626-1.733,12.961-.284,7.867-.107,15.751-.067,23.627a5,5,0,0,0,3.425,4.617c3.488,1.191,6.814-1.325,6.829-5.226.026-6.979.006-13.957.01-20.936a13.338,13.338,0,0,1,.057-1.834q1.06-7.569,2.159-15.132l1.694.006c-.2,3.5-.412,7.008-.6,10.513a42.407,42.407,0,0,0-.258,6.963c.82,7.17,1.866,14.314,2.881,21.46a5.146,5.146,0,1,0,10.2-1.355c-.633-4.975-1.4-9.934-2.016-14.912a59.812,59.812,0,0,1-.652-8.255c.078-4.811.462-9.617.717-14.426.089-.893.254-1.785.256-2.678.019-9.392.049-18.784,0-28.175-.021-3.724-2.493-6.056-6.216-6.074-3.267-.015-6.533-.006-9.8,0-4.189,0-6.494,2.307-6.5,6.536q-.016,13.538.006,27.073a5.888,5.888,0,0,0,.218,1.118ZM72.134.232a8.862,8.862,0,1,0,8.808,8.894A8.862,8.862,0,0,0,72.134.232Zm39.46-.223a8.681,8.681,0,0,0-8.824,8.729,8.75,8.75,0,0,0,8.9,8.958,8.865,8.865,0,0,0,8.826-8.786A8.749,8.749,0,0,0,111.594.009ZM13.2,9.141a8.675,8.675,0,0,0,8.869,8.8,8.849,8.849,0,0,0-.1-17.7A8.727,8.727,0,0,0,13.2,9.141Z" fill="#fefdfe"/><path d="M0,94.656a6.232,6.232,0,0,0,.45-.813c2.529-6.7,4.988-13.421,7.6-20.083.884-2.251.742-4.563.958-6.854.284-3,.4-6.016.592-9.025l10.257.021c-.325,5.171-.64,10.342-.989,15.511a6.4,6.4,0,0,1-.43,1.772c-2.791,7.477-5.573,14.958-8.417,22.415a5.1,5.1,0,0,1-8.282,2.182A14.511,14.511,0,0,1,0,97.352Z" fill="#424c82"/><path d="M62.522,57.87q-.027-3.661-.055-7.323c.872-.17,1.739-.375,2.617-.5C66.55,49.831,68,49.4,68.7,48.051c1.433-2.772,2.666-5.648,4.024-8.576-.552-.275-.932-.5-1.337-.66-1.849-.743-3.73-1.413-5.547-2.226-.873-.391-1.234-.162-1.571.635-.537,1.268-1.157,2.5-1.742,3.746-.007-4.818-.081-9.638,0-14.455a5.409,5.409,0,0,1,5.236-5.441c3.71-.154,7.434-.166,11.145-.032,3.53.127,5.585,2.63,5.6,6.546.022,6.291.008,12.581,0,18.872q0,5.7-.019,11.391l-10.262.064h-1.4Z" fill="#fe403c"/><path d="M113.229,57.651l-1.694-.006-.952-.012q4.494-5.167,8.993-10.331c.856-.978,1.715-2.064,1.468-3.367-.472-2.494-1.2-4.94-1.841-7.459l-8.284,2.274c.311,1.095.514,2.052.859,2.954a1.776,1.776,0,0,1-.476,2.065q-3.092,3.39-6.067,6.887c-1.312,1.547-2.518,3.183-3.772,4.78a5.965,5.965,0,0,1-.217-1.118q-.018-13.536-.006-27.073c.005-4.229,2.31-6.531,6.5-6.536,3.267,0,6.533-.012,9.8,0,3.723.018,6.195,2.35,6.216,6.074.053,9.391.023,18.783,0,28.175,0,.893-.167,1.785-.256,2.678Z" fill="#444e86"/><path d="M19.861,57.9,9.6,57.881Q9.591,44.034,9.585,30.19a29.182,29.182,0,0,1,.2-4.39A5.315,5.315,0,0,1,15.4,21.062q5.145-.039,10.293,0a5.676,5.676,0,0,1,5.92,5.934c.038,4.574.007,9.149.006,13.724a1.7,1.7,0,0,1-2.071-1.157c-.694-1.452-1.549-2.826-2.335-4.234-.362-.723-.7-1.459-1.091-2.166-1.521-2.742-3-5.507-4.609-8.2a4.341,4.341,0,0,0-7.5,4.35c1.186,2.138,2.3,4.314,3.507,6.442.634,1.122,1.388,2.176,2.088,3.26,1.543,2.81,3.017,5.662,4.66,8.412a4.044,4.044,0,0,0,3.393,1.649c1.329.11,2.652.289,3.978.437q-.024,4.187-.049,8.373l-10.327.022Z" fill="#64aefe"/><path d="M74.23,57.915l10.262-.064c.275,4.357.538,8.715.837,13.071a6.845,6.845,0,0,0,.413,1.889Q89.627,83.224,93.56,93.62a5.305,5.305,0,0,1-.533,5.448,4.811,4.811,0,0,1-4.846,1.952,4.962,4.962,0,0,1-4.071-3.292c-1.922-5.018-3.792-10.057-5.684-15.087-.3-.8-.589-1.606-.921-2.394a30.224,30.224,0,0,1-2.686-11.578C74.79,65.083,74.439,61.5,74.23,57.915Z" fill="#51384c"/><path d="M21.262,57.905l10.327-.022q1.031,7.272,2.056,14.545a9.061,9.061,0,0,1,.08,1.221c0,7.231.017,14.462,0,21.693-.01,3.68-2.3,5.975-5.631,5.728a5.005,5.005,0,0,1-4.572-4.363,16.014,16.014,0,0,1-.09-1.833c-.007-5.189-.12-10.38.03-15.564A84.591,84.591,0,0,0,22.2,64.7C21.87,62.435,21.573,60.169,21.262,57.905Z" fill="#363f6c"/><path d="M113.229,57.651l10.274-.012c-.255,4.809-.639,9.615-.717,14.426a59.812,59.812,0,0,0,.652,8.255c.614,4.978,1.383,9.937,2.016,14.912a5.146,5.146,0,1,1-10.2,1.355c-1.015-7.146-2.061-14.29-2.881-21.46a42.407,42.407,0,0,1,.258-6.963C112.817,64.659,113.028,61.155,113.229,57.651Z" fill="#51565b"/><path d="M62.522,57.87l10.305.045q-1.033,7.446-2.063,14.893a12.608,12.608,0,0,0-.122,1.7c-.009,7.059.012,14.118-.014,21.177a5.061,5.061,0,0,1-5.808,5.364c-2.6-.268-4.456-2.526-4.467-5.533-.023-5.713.127-11.43-.044-17.137-.185-6.172,1.093-12.162,1.842-18.22C62.246,59.394,62.4,58.634,62.522,57.87Z" fill="#6a5b6f"/><path d="M110.583,57.633l.952.012q-1.084,7.566-2.159,15.132a13.338,13.338,0,0,0-.057,1.834c0,6.979.016,13.957-.01,20.936-.015,3.9-3.341,6.417-6.829,5.226a5,5,0,0,1-3.425-4.617c-.04-7.876-.217-15.76.067-23.627.157-4.335,1.13-8.641,1.733-12.961.079-.565.144-1.132.216-1.7a3.938,3.938,0,0,1,.483.624,4.3,4.3,0,0,0,7.206,1.113C109.378,58.959,109.976,58.292,110.583,57.633Z" fill="#43474b"/><path d="M62.524,40.97c.585-1.247,1.2-2.478,1.742-3.746.337-.8.7-1.026,1.571-.635,1.817.813,3.7,1.483,5.547,2.226.405.163.785.385,1.337.66-1.358,2.928-2.591,5.8-4.024,8.576-.7,1.347-2.147,1.78-3.613,1.994-.878.127-1.745.332-2.617.5q-5.606.913-11.21,1.824c-.844.137-1.686.3-2.536.379a4.519,4.519,0,0,1-4.277-2.314c-.8-3.754.356-5.636,3.846-6.278l4.349-.977c1.1-.1,2.2-.141,3.294-.3,1.851-.275,3.7-.578,5.528-.974C61.864,41.817,62.172,41.293,62.524,40.97Z" fill="#ba6746"/><path d="M72.134.232a8.862,8.862,0,1,1-8.893,8.825A8.82,8.82,0,0,1,72.134.232Z" fill="#ba6847"/><path d="M111.594.009a8.749,8.749,0,0,1,8.9,8.9,8.865,8.865,0,0,1-8.826,8.786,8.75,8.75,0,0,1-8.9-8.958A8.681,8.681,0,0,1,111.594.009Z" fill="#feb69e"/><path d="M13.2,9.141a8.727,8.727,0,0,1,8.766-8.9,8.849,8.849,0,0,1,.1,17.7A8.675,8.675,0,0,1,13.2,9.141Z" fill="#feb69e"/><path d="M110.583,57.633c-.607.659-1.2,1.326-1.823,1.975a4.3,4.3,0,0,1-7.206-1.113,3.938,3.938,0,0,0-.483-.624l.393-2.435c1.253-1.6,2.459-3.233,3.771-4.78q2.968-3.5,6.067-6.887a1.776,1.776,0,0,0,.476-2.065c-.345-.9-.548-1.859-.859-2.954l8.284-2.274c.637,2.519,1.369,4.965,1.841,7.459.247,1.3-.612,2.389-1.468,3.367Q115.064,52.455,110.583,57.633Z" fill="#fcb49d"/><path d="M48.29,44.158c-3.49.642-4.643,2.524-3.846,6.278-3.257-.266-6.513-.541-9.772-.793-1.009-.078-2.023-.09-3.034-.132-1.326-.149-2.649-.328-3.978-.438a4.044,4.044,0,0,1-3.393-1.649c-1.643-2.75-3.117-5.6-4.66-8.412l7.6-3.686c.786,1.408,1.641,2.782,2.335,4.234a1.7,1.7,0,0,0,2.071,1.157l3.832.258a4.7,4.7,0,0,0,.807.216c2.836.253,5.673.487,8.509.736A3.978,3.978,0,0,1,48.29,44.158Z" fill="#fdb59e"/><path d="M48.29,44.158a3.978,3.978,0,0,0-3.525-2.231c-2.836-.249-5.673-.483-8.509-.736a4.7,4.7,0,0,1-.807-.216c-.149-.791-.3-1.582-.466-2.482H53.918a7.987,7.987,0,0,1-1.279,4.688Z" fill="#813a1d"/><path d="M27.211,35.326l-7.6,3.686c-.7-1.084-1.454-2.138-2.088-3.26-1.2-2.128-2.321-4.3-3.507-6.442a4.341,4.341,0,0,1,7.5-4.35c1.605,2.693,3.088,5.458,4.609,8.2C26.512,33.867,26.849,34.6,27.211,35.326Z" fill="#79bdfd"/></g></g></svg>