<svg xmlns="http://www.w3.org/2000/svg" viewBox="0 0 109.985 110.038"><g id="Layer_2" data-name="Layer 2"><g id="Layer_1-2" data-name="Layer 1"><path d="M20.329,92.479l-2.982-3.007,4.493-3.733a.654.654,0,0,0,.24-.04c2.554-1.595,5.1-3.206,7.663-4.787a1.119,1.119,0,0,0,.56-1.388c-.828-4.885-1.636-9.774-2.313-14.681-.349-2.53-.416-5.1-.61-7.65l-.961-.445a17.787,17.787,0,0,0,1.086-7.079c.152-1.447.25-2.9.465-4.341.731-4.869,1.455-9.74,2.3-14.59a1.292,1.292,0,0,0-.722-1.649c-1.464-.814-2.925-1.635-4.356-2.5-1.142-.7-2.238-1.466-3.354-2.2l-4.507-3.735,2.991-3.016q2.1,1.768,4.2,3.538a32.445,32.445,0,0,0,6.847,4.5,2.452,2.452,0,0,0,.32-.4c.113-.26.207-.529.3-.8a57.385,57.385,0,0,1,6.2-13.223,4.782,4.782,0,0,0,.359-.888l-.008,0,.306-.254.6-.256.366,6.383c-1.484,3.51-2.984,7.013-4.415,10.544-.091.225.282.866.569.977,1.477.571,3,1.031,4.5,1.53q-.489,1.833-.979,3.665l-5.366-1.472a100.938,100.938,0,0,0-2.7,21.536H53.045V39.378h3.9V53H78.591a103.127,103.127,0,0,0-2.739-21.507L70.5,32.957l-.979-3.665c1.465-.487,2.923-1,4.4-1.451.743-.227.838-.645.609-1.3-.47-1.344-.824-2.736-1.389-4.037-.919-2.118-1.97-4.179-2.966-6.264l.354-6.355c.288.255.676.457.847.775,1.682,3.117,3.4,6.218,4.954,9.4.862,1.77,1.422,3.688,2.193,5.738,1.539-.924,3.008-1.648,4.295-2.614,2.334-1.753,4.559-3.65,6.83-5.487l2.946,2.957a6.98,6.98,0,0,0-.9.616,56.678,56.678,0,0,1-11.578,8.114,1.393,1.393,0,0,0-.382,1.167c.739,4.933,1.542,9.857,2.29,14.789.218,1.433.313,2.885.464,4.328a17.905,17.905,0,0,0,1.084,7.078l-.98.477c-.107,1.3-.262,2.509-.3,3.728A94.311,94.311,0,0,1,79.7,79.661a1.359,1.359,0,0,0,.494,1.123c.832.581,1.816.946,2.639,1.537,3.271,2.352,6.5,4.758,9.75,7.144l-2.941,2.95c-2.239-1.818-4.43-3.7-6.737-5.429-1.32-.989-2.828-1.729-4.454-2.7a55.438,55.438,0,0,1-9.482,18.463L66.549,99.29a4.059,4.059,0,0,0,.634-.558,47.631,47.631,0,0,0,7.361-15.325,1.24,1.24,0,0,0-.571-1.059c-1.39-.564-2.833-1-4.257-1.484l-2.708-4.437a3.28,3.28,0,0,1,1-.111,24.842,24.842,0,0,1,2.485.646c1.74.543,3.469,1.121,5.366,1.739A103.3,103.3,0,0,0,78.57,57.11H56.911v13.8H53.079V57.129H31.4a101.489,101.489,0,0,0,2.748,21.485c2.722-.8,5.216-1.551,7.724-2.256a3.448,3.448,0,0,1,1.112.068l-2.708,4.439c-1.348.455-2.687.94-4.048,1.353-.8.242-1.068.63-.735,1.433,1.466,3.528,2.776,7.13,4.424,10.569a36.874,36.874,0,0,0,3.529,5.071l-2.407,3.516-2.243-3.051-.252,0,.008,0a4.93,4.93,0,0,0-.358-.889A51.214,51.214,0,0,1,32.836,87.93c-.4-1.139-.848-2.261-1.339-3.563-2.511,1.424-4.975,2.639-6.978,4.585Z" fill="#298cb4"/><path d="M42.982,76.426a3.448,3.448,0,0,0-1.112-.068c-2.508.7-5,1.455-7.724,2.256A101.489,101.489,0,0,1,31.4,57.129H53.079V70.911A15.312,15.312,0,0,0,42.982,76.426Z" fill="#64c7ef"/><path d="M56.911,70.911V57.11H78.57A103.3,103.3,0,0,1,75.857,78.7c-1.9-.618-3.626-1.2-5.366-1.739a24.842,24.842,0,0,0-2.485-.646,3.28,3.28,0,0,0-1,.111A15.251,15.251,0,0,0,56.911,70.911Z" fill="#64c7ef"/><path d="M53.045,39.378V53.021H31.423a100.938,100.938,0,0,1,2.7-21.536l5.366,1.472c-.1,2.067-.2,4.135-.313,6.421Z" fill="#63c7ef"/><path d="M70.5,32.957l5.352-1.468A103.127,103.127,0,0,1,78.591,53H56.945V39.378H70.8Z" fill="#63c7ef"/><path d="M82.483,49.67c-.151-1.443-.246-2.9-.464-4.328-.748-4.932-1.551-9.856-2.29-14.789a1.393,1.393,0,0,1,.382-1.167,56.678,56.678,0,0,0,11.578-8.114,6.98,6.98,0,0,1,.9-.616c2.177,2.894,4.474,5.709,6.49,8.713a66.379,66.379,0,0,1,3.423,6.554c-1.267-.2-2.131-.377-3-.473-7.753-.861-15.7,5.322-16.766,13.025C82.681,48.877,82.569,49.272,82.483,49.67Z" fill="#64c7ef"/><path d="M43.233,11.8A11.762,11.762,0,0,1,54.778.005C60.717-.174,66.9,4.935,66.753,11.81l-15.677.061Z" fill="#eca702"/><path d="M43.233,86.47a11.763,11.763,0,0,1,11.545-11.8c5.939-.178,12.118,4.93,11.975,11.8l-15.677.062Z" fill="#eca702"/><path d="M.005,51.1A11.763,11.763,0,0,1,11.55,39.3c5.94-.179,12.118,4.93,11.975,11.805l-15.677.061Z" fill="#eca702"/><path d="M86.461,51.1A11.763,11.763,0,0,1,98.006,39.3c5.94-.179,12.118,4.93,11.975,11.805L94.3,51.169Z" fill="#eca702"/><path d="M92.587,89.465c-3.246-2.386-6.479-4.792-9.75-7.144-.823-.591-1.807-.956-2.639-1.537a1.359,1.359,0,0,1-.494-1.123,94.311,94.311,0,0,0,2.583-18.708c.038-1.219.193-2.433.3-3.728l.98-.477,3.9,6.47a17.032,17.032,0,0,0-4.278,6.89c-.879,2.749-.666,5.554-.67,8.491h17.826a37.258,37.258,0,0,1-2.014,3.436C96.466,84.549,94.508,86.993,92.587,89.465Z" fill="#64c7ef"/><path d="M68.973,102.748a55.438,55.438,0,0,0,9.482-18.463c1.626.972,3.134,1.712,4.454,2.7,2.307,1.729,4.5,3.611,6.737,5.429-2.874,2.2-5.579,4.686-8.67,6.519-3.206,1.9-6.789,3.162-10.2,4.718C69.77,104.111,69.138,103.918,68.973,102.748Z" fill="#64c7ef"/><path d="M89.647,17.7c-2.271,1.837-4.5,3.734-6.83,5.487-1.287.966-2.756,1.69-4.295,2.614-.771-2.05-1.331-3.968-2.193-5.738-1.551-3.183-3.272-6.284-4.954-9.4-.171-.318-.559-.52-.847-.775-.236-1.185-.473-2.37-.758-3.8,1.907.72,3.706,1.328,5.448,2.071a49.541,49.541,0,0,1,13.516,8.566C89.065,17.018,89.344,17.372,89.647,17.7Z" fill="#64c7ef"/><path d="M21.84,24.382c1.116.737,2.212,1.508,3.354,2.2,1.431.869,2.892,1.69,4.356,2.5a1.292,1.292,0,0,1,.722,1.649c-.847,4.85-1.571,9.721-2.3,14.59-.215,1.438-.313,2.894-.465,4.341A18.237,18.237,0,0,0,24.961,42.6a16.328,16.328,0,0,0-9.284-6.756c.914-2,1.733-4.044,2.77-5.975C19.463,27.981,20.7,26.207,21.84,24.382Z" fill="#64c7ef"/><path d="M58.443,98.822c5.016,1.609,8.6,6.445,8.244,11.216H51.064a11.694,11.694,0,0,1,6.388-10.413A7.225,7.225,0,0,0,58.443,98.822Z" fill="#f9b301"/><path d="M101.657,63.448c5.012,1.6,8.544,6.348,8.274,11.222H94.289a11.782,11.782,0,0,1,6.5-10.47A5.319,5.319,0,0,0,101.657,63.448Z" fill="#505050"/><path d="M15.2,63.443c5.01,1.6,8.665,6.524,8.249,11.228H7.829A11.539,11.539,0,0,1,12.7,65.256Q13.951,64.352,15.2,63.443Z" fill="#3cc7b3"/><path d="M58.814,24.334a11.514,11.514,0,0,1,7.894,11.039H51.058A11.792,11.792,0,0,1,58.814,24.334Z" fill="#f96450"/><path d="M94.3,51.169l15.677-.061c.129,4.934-3.508,9.982-7.995,11.1C97.16,60.1,94.521,56.479,94.3,51.169Z" fill="#efc7a0"/><path d="M51.076,11.871l15.677-.061c.128,4.934-3.509,9.983-8,11.1C53.931,20.805,51.293,17.18,51.076,11.871Z" fill="#efc7a0"/><path d="M7.848,51.169l15.677-.061c.128,4.934-3.509,9.982-8,11.1C10.7,60.1,8.065,56.479,7.848,51.169Z" fill="#efc7a0"/><path d="M51.076,86.538l15.677-.062c.128,4.935-3.508,9.983-7.995,11.1C53.932,95.471,51.293,91.847,51.076,86.538Z" fill="#efc7a0"/><path d="M26.419,56.748l.961.445c.194,2.552.261,5.12.61,7.65.677,4.907,1.485,9.8,2.313,14.681a1.119,1.119,0,0,1-.56,1.388C27.18,82.493,24.634,84.1,22.08,85.7a.654.654,0,0,1-.24.04l-.854-1.44L17.65,78.683h9.7c.662-6.061-.467-11.4-4.859-15.447C23.841,61.006,25.13,58.877,26.419,56.748Z" fill="#64c7ef"/><path d="M21.84,24.382c-1.14,1.825-2.377,3.6-3.393,5.491-1.037,1.931-1.856,3.979-2.77,5.975a17.041,17.041,0,0,0-7.8.117c-.081-.167-.151-.244-.134-.286a46.179,46.179,0,0,1,9.591-15.031Q19.588,22.514,21.84,24.382Z" fill="#47aad2"/><path d="M38.794,99.756l2.243,3.051c-.152,1.042-.6,1.283-1.673.931A51.728,51.728,0,0,1,20.611,92.864a2.284,2.284,0,0,1-.282-.385l4.191-3.527q.635.57,1.269,1.138c2.306,2.059,4.515,4.243,6.953,6.132a56.834,56.834,0,0,0,5.808,3.534l-.008,0Z" fill="#47aad2"/><path d="M39.447,9.858l-.6.256-.3.254.008,0a3.5,3.5,0,0,0-.907.326c-3.006,2.148-6.051,4.247-8.969,6.51a52.942,52.942,0,0,0-4.151,3.967q-2.1-1.77-4.2-3.538A45.248,45.248,0,0,1,33.612,8.654c2.095-.965,4.278-1.738,6.672-2.7Z" fill="#47aad2"/><path d="M101.657,63.448a5.319,5.319,0,0,1-.868.752,11.782,11.782,0,0,0-6.5,10.47H86.5a8.386,8.386,0,0,1,.859-4.577,11.887,11.887,0,0,1,9.006-7.11h3.713Z" fill="#3d3d3d"/><path d="M58.814,24.334a11.792,11.792,0,0,0-7.756,11.039H43.28a8.311,8.311,0,0,1,.861-4.6,11.876,11.876,0,0,1,9.032-7.089l3.718.041Z" fill="#dc4733"/><path d="M15.2,63.443q-1.25.906-2.5,1.813a11.539,11.539,0,0,0-4.871,9.415H.01a10.88,10.88,0,0,1,2.311-7.047,12.3,12.3,0,0,1,7.648-4.67h3.6Z" fill="#1faa96"/><path d="M58.443,98.822a7.225,7.225,0,0,1-.991.8,11.694,11.694,0,0,0-6.388,10.413h-7.7c-.889-4.845,3.89-10.576,9.631-11.6l4.21.061Z" fill="#dc9601"/><path d="M57.2,98.5l-4.21-.061a11.537,11.537,0,0,0-1.455-.639,11.745,11.745,0,0,1-8.3-11.331l7.843.068c.217,5.309,2.856,8.933,7.682,11.035Z" fill="#d2aa82"/><path d="M56.891,23.725l-3.718-.041a30.169,30.169,0,0,1-4.835-2.175,10.982,10.982,0,0,1-5.105-9.7l7.843.067c.217,5.309,2.855,8.934,7.681,11.035Z" fill="#d2aa82"/><path d="M100.079,62.982H96.366c-.525-.185-1.041-.4-1.576-.551A11.727,11.727,0,0,1,86.461,51.1l7.843.067c.217,5.31,2.856,8.934,7.682,11.036Z" fill="#d2aa82"/><path d="M13.567,62.954h-3.6a14.081,14.081,0,0,1-6.128-3.089A11.316,11.316,0,0,1,.005,51.1l7.843.067c.217,5.31,2.855,8.934,7.681,11.036Z" fill="#d2aa82"/><path d="M17.65,78.683,20.986,84.3l.854,1.44-4.493,3.733A45.325,45.325,0,0,1,9.679,78.683Z" fill="#47aad2"/><path d="M40.468,29.292c-1.5-.5-3.024-.959-4.5-1.53-.287-.111-.66-.752-.569-.977,1.431-3.531,2.931-7.034,4.415-10.544a18.011,18.011,0,0,0,4.5,7.14Z" fill="#64c7ef"/><path d="M70.174,16.241c1,2.085,2.047,4.146,2.966,6.264.565,1.3.919,2.693,1.389,4.037.229.654.134,1.072-.609,1.3-1.476.451-2.934.964-4.4,1.451l-3.847-5.91A18.032,18.032,0,0,0,70.174,16.241Z" fill="#64c7ef"/><path d="M43.444,99.291a36.874,36.874,0,0,1-3.529-5.071c-1.648-3.439-2.958-7.041-4.424-10.569-.333-.8-.061-1.191.735-1.433,1.361-.413,2.7-.9,4.048-1.353A15.651,15.651,0,0,0,42.19,95.534c.672.959,1.486,1.819,2.316,2.825Z" fill="#64c7ee"/><path d="M69.716,80.864c1.424.483,2.867.92,4.257,1.484a1.24,1.24,0,0,1,.571,1.059,47.631,47.631,0,0,1-7.361,15.325,4.059,4.059,0,0,1-.634.558l-1.109-.927C66,97.741,66.524,97.2,67,96.609,70.819,91.867,71.612,86.6,69.716,80.864Z" fill="#64c7ee"/><path d="M38.55,99.756a56.834,56.834,0,0,1-5.808-3.534C30.3,94.333,28.1,92.149,25.789,90.09q-.636-.567-1.269-1.138c2-1.946,4.466-3.161,6.977-4.585.491,1.3.94,2.424,1.339,3.563a51.214,51.214,0,0,0,5.356,10.937A4.93,4.93,0,0,1,38.55,99.756Z" fill="#63c7ee"/><path d="M24.523,21.169A52.942,52.942,0,0,1,28.674,17.2c2.918-2.263,5.963-4.362,8.969-6.51a3.5,3.5,0,0,1,.907-.326,4.782,4.782,0,0,1-.359.888,57.385,57.385,0,0,0-6.2,13.223c-.092.269-.186.538-.3.8a2.452,2.452,0,0,1-.32.4A32.445,32.445,0,0,1,24.523,21.169Z" fill="#63c7ee"/><path d="M38.542,10.368l.3-.254Z" fill="#63c7ee"/><path d="M38.794,99.756l-.252,0Z" fill="#63c7ee"/></g></g></svg>