<svg xmlns="http://www.w3.org/2000/svg" viewBox="0 0 113.581 74.352"><g id="Layer_2" data-name="Layer 2"><g id="Layer_1-2" data-name="Layer 1"><path d="M0,39.177.244,38.7A2.63,2.63,0,0,0,2.9,40.075q23.719-.038,47.441-.018c.405,0,.81-.026,1.215-.039.515.011,1.031.033,1.546.033q30.24.007,60.481.012V45.82c-.368-.013-.736-.037-1.1-.038q-55.575,0-111.149,0c-.368,0-.736.027-1.1.042L0,45.6Z" fill="#f4f2f2"/><path d="M113.581,67.96q-.281.327-.56.653H.781L0,66.853V63.089l.23-.238c.479.01.958.03,1.438.03q54.3,0,108.592,0c1.107,0,2.214-.009,3.321-.014Z" fill="#f4f3f3"/><path d="M113.581,62.868c-1.107,0-2.214.014-3.321.014q-54.3,0-108.592,0c-.48,0-.959-.02-1.438-.03l.023-5.685c.516,0,1.033-.013,1.549-.013q55.171,0,110.343,0c.478,0,.957-.026,1.436-.04Z" fill="#fe4d57"/><path d="M.225,45.825c.367-.015.735-.042,1.1-.042q55.573,0,111.149,0c.368,0,.736.025,1.1.038v5.756c-.476-.027-.953-.077-1.429-.077q-55.94-.008-111.88-.007Z" fill="#fe4e58"/><path d="M.272,51.492q55.939,0,111.88.007c.476,0,.953.05,1.429.077v5.535c-.479.014-.958.04-1.436.04q-55.171,0-110.343,0c-.516,0-1.033.008-1.549.013L0,56.89V51.8Z" fill="#f4f4f4"/><path d="M113.581,40.063q-30.24,0-60.481-.012c-.515,0-1.031-.022-1.546-.033a2.343,2.343,0,0,0,1.422-2.447c-.052-1.084.025-2.173.045-3.26l60.56-.005Z" fill="#fe4c56"/><path d="M113.581,34.306l-60.56.005q0-2.862,0-5.723h59.456c.368,0,.735-.024,1.1-.037Z" fill="#f4f2f2"/><path d="M113.581,28.55c-.368.013-.735.037-1.1.037H53.022q-.006-2.867-.01-5.733c.184.006.368.017.552.017q29.571,0,59.143,0c.291,0,.582-.05.874-.077Z" fill="#fe4e58"/><path d="M113.581,11.5v5.756c-.147-.013-.293-.038-.44-.038q-30.062,0-60.122.009l0-5.742h6.962Z" fill="#fe4d57"/><path d="M113.581,11.5l-53.6-.015H53.023l.006-5.726,59.982,0,.57.651Z" fill="#f4f2f3"/><path d="M53.019,17.229q30.06-.006,60.122-.009c.147,0,.293.025.44.038v5.535c-.292.027-.583.077-.874.077q-29.572.006-59.143,0c-.184,0-.368-.011-.552-.017Q53.015,20.041,53.019,17.229Z" fill="#f4f4f4"/><path d="M0,56.89l.253.276Q.241,60.009.23,62.851L0,63.089Z" fill="#fefefe"/><path d="M.272,51.492,0,51.8V45.6l.225.227Z" fill="#fefefe"/><path d="M53.019,17.229q0,2.813-.007,5.626,0,2.866.01,5.733t0,5.723c-.02,1.087-.1,2.176-.045,3.26a2.343,2.343,0,0,1-1.422,2.447c-.405.013-.81.039-1.215.039q-23.721,0-47.441.018A2.63,2.63,0,0,1,.244,38.7C.236,28.668.188,18.636.239,8.605A8.32,8.32,0,0,1,8.671.039C22.833-.035,36.995.018,51.158.022a1.643,1.643,0,0,1,.219.029,2.2,2.2,0,0,1,1.6,2.426c-.04,1.092.033,2.189.056,3.284l-.006,5.726Q53.02,14.358,53.019,17.229ZM19.054,9.391c1.209.518,1.352,1.373.714,2.65l1.565-.923,1.408.791-.344-1.55,1.052-.99.074-.333c-1.39.517-1.813-.318-2.113-1.342C20.636,8.944,20.636,8.944,19.054,9.391ZM18.3,5.947A1.937,1.937,0,0,1,16.015,4.34c-.13,1.4-1.028,1.6-2.337,1.5L15.02,7.012l-.364,1.6,1.434-.837,1.2.748A1.963,1.963,0,0,1,18.3,5.947ZM44.691,9.191c-1.5.445-1.892-.5-2.35-1.512-.123,1.374-1.008,1.59-2.318,1.488l1.34,1.175-.373,1.623L42.4,11.1l1.581.923C43.319,10.721,43.52,9.913,44.691,9.191Zm3.022,15.543a1.909,1.909,0,0,1-2.225,1.594,1.91,1.91,0,0,1,.962,2.527l1.249-.721L49.108,29l-.375-1.627L50.079,26.2C48.769,26.3,47.865,26.111,47.713,24.734ZM50.106,5.811c-1.41.2-2.173-.217-2.449-1.467-.22,1.29-.994,1.654-2.193,1.626a1.9,1.9,0,0,1,1.019,2.5l1.2-.7,1.408.836-.357-1.605ZM21.319,27.949c-.092,1.473-1.053,1.644-2.156,1.725a1.908,1.908,0,0,1,.953,2.5l1.242-.713,1.441.875-.415-1.63,1.372-1.214C22.339,29.681,21.55,29.331,21.319,27.949ZM10.771,7.69c-.133,1.4-1.085,1.54-2.19,1.635,1.132.57,1.341,1.387.71,2.659l1.489-.852,1.264.663a1.914,1.914,0,0,1,.921-2.505A1.882,1.882,0,0,1,10.771,7.69Zm3.966,21.241,1.329-.789,1.575.905c-.668-1.291-.463-2.1.644-2.739A1.913,1.913,0,0,1,16.024,24.7c-.154,1.361-.994,1.629-2.134,1.508C14.947,27.515,14.947,27.515,14.737,28.931Zm24.616-2.619A1.9,1.9,0,0,1,37.1,24.683c-.144,1.391-1,1.634-2.18,1.648,1.158.574,1.261,1.448.964,2.617.919-1.2,1.719-.552,2.853.107C38.032,27.768,38.224,26.952,39.353,26.312ZM5.507,7.77l1.236.7L7.1,8.455c-.922-1.143-.212-1.806.544-2.555-1.3.265-1.759-.538-2.158-1.53-.18,1.286-.99,1.56-2.122,1.623a1.6,1.6,0,0,1,.708,2.478l.294.029ZM37.134,4.364c-.19,1.306-1.012,1.616-2.251,1.618,1.3.527,1.256,1.428.859,2.6l1.4-.782,1.228.679.405-.014c-1.108-1.2-.187-1.8.69-2.65C38.11,6,37.4,5.612,37.134,4.364Zm-7.41,4.949c1.154.576,1.177,1.454.671,2.674l1.485-.879,1.206.7.372-.071c-1-1.157-.176-1.746.8-2.6a1.8,1.8,0,0,1-2.39-1.409A1.855,1.855,0,0,1,29.724,9.313ZM29.7,29.671c1.249.55,1.128,1.48.715,2.648l1.482-.849,1.185.708.377-.059c-.954-1.151-.228-1.77.827-2.606-1.433.2-2.127-.278-2.4-1.426A1.891,1.891,0,0,1,29.7,29.671ZM5.5,28.151l1.286.648c-.575-1.19.155-1.809.853-2.528-1.265.224-1.754-.52-2.17-1.536-.127,1.322-.988,1.569-2.135,1.625,1.2.573,1.236,1.443.693,2.678Zm6.654,4.057a1.828,1.828,0,0,1,.821-2.574c-1.288.14-1.858-.493-2.234-1.636-.1,1.411-1,1.607-2.14,1.681a1.76,1.76,0,0,1,.887,2.529A1.77,1.77,0,0,1,12.154,32.208Zm30.2-4.179c-.114,1.34-1.03,1.567-2.308,1.551L41.365,30.7l-.4,1.616,1.444-.841,1.437.814-.387-1.594,1.074-.925.073-.373C43.174,29.939,42.785,29.054,42.352,28.029ZM24.413,5.975A1.9,1.9,0,0,1,25.4,8.487L26.6,7.8l1.209.655.356-.027c-.985-1.189-.129-1.781.612-2.563-1.306.3-1.825-.413-2.192-1.467A1.834,1.834,0,0,1,24.413,5.975ZM40.261,22.866c1.148.633,1.144,1.507.67,2.688l1.48-.864,1.242.716L44,25.373c-.965-1.158-.268-1.814.587-2.582-1.369.376-1.81-.427-2.207-1.527C42.143,22.486,41.533,23.055,40.261,22.866ZM16.042,21.373l1.308.667c-.6-1.2.077-1.831.865-2.546-1.278.25-1.827-.406-2.149-1.554A1.892,1.892,0,0,1,13.829,19.6c1.442.511,1.106,1.5.849,2.587Zm12.715-8.636c-1.26.178-1.841-.431-2.154-1.551a1.846,1.846,0,0,1-2.186,1.579c1.195.6,1.195,1.478.854,2.571a1.719,1.719,0,0,1,2.686.022A1.838,1.838,0,0,1,28.757,12.737ZM7.689,12.7c-1.367.323-1.787-.539-2.252-1.578-.013,1.516-1.038,1.531-2.08,1.683a1.742,1.742,0,0,1,.831,2.542,1.745,1.745,0,0,1,2.714,0A1.87,1.87,0,0,1,7.689,12.7ZM26.607,24.722c-.21,1.333-1.051,1.6-2.208,1.622a1.9,1.9,0,0,1,1.02,2.5l1.175-.7,1.2.675a1.886,1.886,0,0,1,1.019-2.5C27.636,26.329,26.8,26.056,26.607,24.722ZM25.315,35.736c.876-1.16,1.717-.642,2.649-.126-.595-1.134-.1-1.855,1.006-2.535l-1.681-.149-.636-1.3-.308-.15c.129,1.49-.844,1.584-1.962,1.7C25.747,33.71,25.548,34.618,25.315,35.736Zm21.02-.062c.907-.924,1.8-.639,2.79-.088-.931-1.243.027-1.821.867-2.539l-1.665-.121-.564-1.287a1.983,1.983,0,0,1-2.264,1.5A1.77,1.77,0,0,1,46.335,35.674ZM29.716,16.085a1.808,1.808,0,0,1,.819,2.587,1.769,1.769,0,0,1,2.73,0c-.7-1.221-.025-1.928.755-2.687-1.369.374-1.773-.513-2.189-1.482A1.72,1.72,0,0,1,29.716,16.085ZM17.268,35.644a2.077,2.077,0,0,1,.969-2.581c-1.264.21-1.866-.4-2.2-1.535-.194,1.331-1.02,1.592-2.3,1.489l1.3,1.17L14.6,35.805l1.468-.884Zm2.7-16.987a1.932,1.932,0,0,1,2.731-.151l-.3-1.4,1.074-.923.026-.286c-1.259.355-1.839-.295-2.253-1.457,0,1.546-1.032,1.531-2.087,1.689C20.3,16.7,20.41,17.537,19.963,18.657Zm29.825-5.8.061-.427c-1.468.738-1.738-.336-2.181-1.3-.283.6-.379,1.147-.7,1.382s-.869.139-1.317.189a1.958,1.958,0,0,1,.679,2.64c.949-.864,1.776-.805,2.807.243l-.4-1.772Zm-35.1,2.262.126.341c.832-1.05,1.689-.873,2.635-.146-.633-1.19-.038-1.913.775-2.672-1.394.407-1.787-.474-2.192-1.475-.194,1.311-.992,1.61-2.314,1.477l1.318,1.178Zm8.794,7.71c-1.348.339-1.784-.49-2.17-1.515a1.824,1.824,0,0,1-2.126,1.6c1.13.6,1.194,1.454.774,2.568a1.79,1.79,0,0,1,2.74-.023A1.865,1.865,0,0,1,23.486,22.825Zm25.4-.747a1.954,1.954,0,0,1,.985-2.553,1.728,1.728,0,0,1-2.182-1.59,1.942,1.942,0,0,1-2.23,1.673c1.368.541,1.142,1.486.717,2.637l1.5-.888ZM35.824,35.712c.931-.958,1.76-.773,2.767.015-.779-1.216-.2-1.945.709-2.673-1.318.259-1.823-.444-2.108-1.73l-.7,1.59-1.433.155C36.138,33.718,36.2,34.581,35.824,35.712ZM43.614,18.6c-.435-1.159.077-1.87.956-2.594-1.291.265-1.83-.439-2.209-1.517-.162,1.35-1.018,1.574-2.162,1.621a1.829,1.829,0,0,1,1.014,2.5l1.2-.721Zm-4.307-5.9c-1.415.374-1.772-.541-2.156-1.653L36.5,12.54l-1.44.184c1.132.619,1.067,1.533.8,2.6.92-1.015,1.755-.645,2.654-.02A1.838,1.838,0,0,1,39.307,12.7ZM7.64,19.506c-1.429.412-1.681-.673-2.154-1.535a1.805,1.805,0,0,1-2.172,1.62c1.466.495,1.083,1.52.967,2.631.867-1.294,1.709-.633,2.8.007C6.447,21,6.631,20.211,7.64,19.506Zm5.325-3.487c-1.429.378-1.776-.575-2.217-1.533-.134,1.383-1.037,1.56-2.145,1.632a1.786,1.786,0,0,1,.873,2.588c.94-1.124,1.773-.689,2.714-.073A1.806,1.806,0,0,1,12.965,16.019ZM4.074,35.688c1.405-.648,1.405-.648,2.984-.019-.8-1.152-.2-1.889.581-2.647-1.327.318-1.741-.48-2.138-1.447a1.812,1.812,0,0,1-2.13,1.574C4.538,33.746,4.6,34.609,4.074,35.688ZM31.867,21.249a1.812,1.812,0,0,1-2.122,1.679c1.17.59,1.156,1.471.8,2.558.92-.963,1.75-.859,2.7-.015a1.913,1.913,0,0,1,.734-2.632C32.734,23.008,32.206,22.438,31.867,21.249Zm-3.905,1.017c-.108-.833-.317-1.339-.183-1.727.127-.369.612-.615.94-.915-1.306.218-1.73-.632-2.163-1.605-.205,1.205-.958,1.576-2.111,1.6,1.276.554,1.114,1.479.827,2.5A1.691,1.691,0,0,1,27.962,22.266Zm-17.221-.96c-.084,1.406-1.017,1.539-2.115,1.619A1.6,1.6,0,0,1,9.361,25.4c1.477-.61,1.477-.61,2.484-.139l.743-2.447C11.672,23.058,11.139,22.436,10.741,21.306ZM35,19.528a1.894,1.894,0,0,1,.826,2.625c.953-1.164,1.781-.588,2.785-.073-.893-1.19-.119-1.833.676-2.636-1.4.448-1.736-.52-2.2-1.712C36.794,19.074,36.307,19.768,35,19.528Z" fill="#43489b"/><path d="M53.029,5.761c-.023-1.095-.1-2.192-.056-3.284a2.2,2.2,0,0,0-1.6-2.426Q60.064.038,68.75.025,86.624.019,104.5.027c3.912,0,7.051,1.93,8.341,5.1a5.35,5.35,0,0,1,.173.635Z" fill="#fe4d57"/><path d="M.781,68.613h112.24a8.331,8.331,0,0,1-7.861,5.723c-.294.015-.59.009-.885.009q-47.375,0-94.748.007c-3.462,0-6.262-1.188-8.108-4.225A10.919,10.919,0,0,1,.781,68.613Z" fill="#fe4d56"/><path d="M19.054,9.391c1.582-.447,1.582-.447,2.356-1.7.3,1.024.723,1.859,2.113,1.342l-.074.333-1.052.99.344,1.55-1.408-.791-1.565.923C20.406,10.764,20.263,9.909,19.054,9.391Z" fill="#e8e8ee"/><path d="M18.3,5.947a1.963,1.963,0,0,0-1,2.574l-1.2-.748-1.434.837.364-1.6L13.678,5.838c1.309.1,2.207-.1,2.337-1.5A1.937,1.937,0,0,0,18.3,5.947Z" fill="#e7e7ee"/><path d="M44.691,9.191c-1.171.722-1.372,1.53-.715,2.833L42.4,11.1l-1.405.864.373-1.623-1.34-1.175c1.31.1,2.2-.114,2.318-1.488C42.8,8.7,43.187,9.636,44.691,9.191Z" fill="#e7e7ed"/><path d="M47.713,24.734c.152,1.377,1.056,1.561,2.366,1.465l-1.346,1.173L49.108,29,47.7,28.134l-1.249.721a1.91,1.91,0,0,0-.962-2.527A1.909,1.909,0,0,0,47.713,24.734Z" fill="#e8e9ee"/><path d="M50.106,5.811l-1.373,1.2.357,1.605-1.408-.836-1.2.7a1.9,1.9,0,0,0-1.019-2.5c1.2.028,1.973-.336,2.193-1.626C47.933,5.594,48.7,6.013,50.106,5.811Z" fill="#e9e9ee"/><path d="M21.319,27.949c.231,1.382,1.02,1.732,2.437,1.545l-1.372,1.214.415,1.63-1.441-.875-1.242.713a1.908,1.908,0,0,0-.953-2.5C20.266,29.593,21.227,29.422,21.319,27.949Z" fill="#e8e9ee"/><path d="M10.771,7.69a1.882,1.882,0,0,0,2.194,1.6,1.914,1.914,0,0,0-.921,2.505l-1.264-.663-1.489.852c.631-1.272.422-2.089-.71-2.659C9.686,9.23,10.638,9.092,10.771,7.69Z" fill="#e6e7ed"/><path d="M14.737,28.931c.21-1.416.21-1.416-.847-2.726,1.14.121,1.98-.147,2.134-1.508a1.913,1.913,0,0,0,2.261,1.611c-1.107.639-1.312,1.448-.644,2.739l-1.575-.905Z" fill="#e7e8ee"/><path d="M39.353,26.312c-1.129.64-1.321,1.456-.617,2.743-1.134-.659-1.934-1.308-2.853-.107.3-1.169.194-2.043-.964-2.617,1.175-.014,2.036-.257,2.18-1.648A1.9,1.9,0,0,0,39.353,26.312Z" fill="#e8e9ee"/><path d="M5.507,7.77l-1.14.73-.294-.029a1.6,1.6,0,0,0-.708-2.478C4.5,5.93,5.307,5.656,5.487,4.37c.4.992.857,1.8,2.158,1.53-.756.749-1.466,1.412-.544,2.555l-.358.017Z" fill="#e7e7ee"/><path d="M37.134,4.364C37.4,5.612,38.11,6,39.463,5.814c-.877.854-1.8,1.454-.69,2.65l-.405.014L37.14,7.8l-1.4.782c.4-1.171.439-2.072-.859-2.6C36.122,5.98,36.944,5.67,37.134,4.364Z" fill="#e8e8ee"/><path d="M29.724,9.313a1.855,1.855,0,0,0,2.139-1.586,1.8,1.8,0,0,0,2.39,1.409c-.971.857-1.8,1.446-.8,2.6l-.372.071-1.206-.7-1.485.879C30.9,10.767,30.878,9.889,29.724,9.313Z" fill="#e7e7ed"/><path d="M29.7,29.671a1.891,1.891,0,0,0,2.182-1.584c.277,1.148.971,1.622,2.4,1.426-1.055.836-1.781,1.455-.827,2.606l-.377.059-1.185-.708-1.482.849C30.825,31.151,30.946,30.221,29.7,29.671Z" fill="#e7e7ee"/><path d="M5.5,28.151l-1.473.887c.543-1.235.51-2.105-.693-2.678,1.147-.056,2.008-.3,2.135-1.625.416,1.016.9,1.76,2.17,1.536-.7.719-1.428,1.338-.853,2.528Z" fill="#e7e8ee"/><path d="M12.154,32.208a1.77,1.77,0,0,0-2.666,0A1.76,1.76,0,0,0,8.6,29.679c1.137-.074,2.039-.27,2.14-1.681.376,1.143.946,1.776,2.234,1.636A1.828,1.828,0,0,0,12.154,32.208Z" fill="#e7e7ee"/><path d="M42.352,28.029c.433,1.025.822,1.91,2.253,1.365l-.073.373-1.074.925.387,1.594-1.437-.814-1.444.841.4-1.616L40.044,29.58C41.322,29.6,42.238,29.369,42.352,28.029Z" fill="#e8e8ee"/><path d="M24.413,5.975A1.834,1.834,0,0,0,26.581,4.4c.367,1.054.886,1.764,2.192,1.467-.741.782-1.6,1.374-.612,2.563l-.356.027L26.6,7.8,25.4,8.487A1.9,1.9,0,0,0,24.413,5.975Z" fill="#e7e7ed"/><path d="M40.261,22.866c1.272.189,1.882-.38,2.117-1.6.4,1.1.838,1.9,2.207,1.527-.855.768-1.552,1.424-.587,2.582l-.345.033-1.242-.716-1.48.864C41.405,24.373,41.409,23.5,40.261,22.866Z" fill="#ebebf0"/><path d="M16.042,21.373l-1.364.812c.257-1.092.593-2.076-.849-2.587a1.892,1.892,0,0,0,2.237-1.658c.322,1.148.871,1.8,2.149,1.554-.788.715-1.463,1.346-.865,2.546Z" fill="#ebecf0"/><path d="M28.757,12.737a1.838,1.838,0,0,0-.8,2.621,1.719,1.719,0,0,0-2.686-.022c.341-1.093.341-1.971-.854-2.571A1.846,1.846,0,0,0,26.6,11.186C26.916,12.306,27.5,12.915,28.757,12.737Z" fill="#ececf0"/><path d="M7.689,12.7A1.87,1.87,0,0,0,6.9,15.345a1.745,1.745,0,0,0-2.714,0,1.742,1.742,0,0,0-.831-2.542c1.042-.152,2.067-.167,2.08-1.683C5.9,12.162,6.322,13.024,7.689,12.7Z" fill="#eaebef"/><path d="M26.607,24.722c.19,1.334,1.029,1.607,2.211,1.6a1.886,1.886,0,0,0-1.019,2.5l-1.2-.675-1.175.7a1.9,1.9,0,0,0-1.02-2.5C25.556,26.318,26.4,26.055,26.607,24.722Z" fill="#e8e8ee"/><path d="M25.315,35.736c.233-1.118.432-2.026-.932-2.559,1.118-.114,2.091-.208,1.962-1.7l.308.15.636,1.3,1.681.149c-1.11.68-1.6,1.4-1.006,2.535C27.032,35.094,26.191,34.576,25.315,35.736Z" fill="#ececf0"/><path d="M46.335,35.674a1.77,1.77,0,0,0-.836-2.539,1.983,1.983,0,0,0,2.264-1.5l.564,1.287,1.665.121c-.84.718-1.8,1.3-.867,2.539C48.132,35.035,47.242,34.75,46.335,35.674Z" fill="#ebebf0"/><path d="M29.716,16.085A1.72,1.72,0,0,0,31.831,14.5c.416.969.82,1.856,2.189,1.482-.78.759-1.46,1.466-.755,2.687a1.769,1.769,0,0,0-2.73,0A1.808,1.808,0,0,0,29.716,16.085Z" fill="#eaebef"/><path d="M17.268,35.644l-1.2-.723-1.468.884.436-1.618-1.3-1.17c1.28.1,2.106-.158,2.3-1.489.332,1.131.934,1.745,2.2,1.535A2.077,2.077,0,0,0,17.268,35.644Z" fill="#ebecf0"/><path d="M19.963,18.657c.447-1.12.337-1.953-.809-2.526,1.055-.158,2.09-.143,2.087-1.689.414,1.162.994,1.812,2.253,1.457l-.026.286-1.074.923.3,1.4A1.932,1.932,0,0,0,19.963,18.657Z" fill="#eaebef"/><path d="M49.788,12.853l-1.059.95.4,1.772c-1.031-1.048-1.858-1.107-2.807-.243a1.958,1.958,0,0,0-.679-2.64c.448-.05,1,.042,1.317-.189s.421-.786.7-1.382c.443.969.713,2.043,2.181,1.3Z" fill="#eaebef"/><path d="M14.692,15.115l.348-1.3L13.722,12.64c1.322.133,2.12-.166,2.314-1.477.4,1,.8,1.882,2.192,1.475-.813.759-1.408,1.482-.775,2.672-.946-.727-1.8-.9-2.635.146Z" fill="#ebecf0"/><path d="M23.486,22.825a1.865,1.865,0,0,0-.782,2.632,1.79,1.79,0,0,0-2.74.023c.42-1.114.356-1.965-.774-2.568a1.824,1.824,0,0,0,2.126-1.6C21.7,22.335,22.138,23.164,23.486,22.825Z" fill="#ebecf0"/><path d="M48.891,22.078l-1.208-.721-1.5.888c.425-1.151.651-2.1-.717-2.637a1.942,1.942,0,0,0,2.23-1.673,1.728,1.728,0,0,0,2.182,1.59A1.954,1.954,0,0,0,48.891,22.078Z" fill="#ebecf0"/><path d="M35.824,35.712c.378-1.131.314-1.994-.762-2.643l1.433-.155.7-1.59c.285,1.286.79,1.989,2.108,1.73-.914.728-1.488,1.457-.709,2.673C37.584,34.939,36.755,34.754,35.824,35.712Z" fill="#ececf0"/><path d="M43.614,18.6l-1.2-.715-1.2.721a1.829,1.829,0,0,0-1.014-2.5c1.144-.047,2-.271,2.162-1.621.379,1.078.918,1.782,2.209,1.517C43.691,16.733,43.179,17.444,43.614,18.6Z" fill="#ebecf0"/><path d="M39.307,12.7a1.838,1.838,0,0,0-.8,2.605c-.9-.625-1.734-.995-2.654.02.271-1.071.336-1.985-.8-2.6l1.44-.184.651-1.49C37.535,12.162,37.892,13.077,39.307,12.7Z" fill="#ececf0"/><path d="M7.64,19.506c-1.009.7-1.193,1.489-.556,2.723-1.094-.64-1.936-1.3-2.8-.007.116-1.111.5-2.136-.967-2.631a1.805,1.805,0,0,0,2.172-1.62C5.959,18.833,6.211,19.918,7.64,19.506Z" fill="#ebebf0"/><path d="M12.965,16.019a1.806,1.806,0,0,0-.775,2.614c-.941-.616-1.774-1.051-2.714.073A1.786,1.786,0,0,0,8.6,16.118c1.108-.072,2.011-.249,2.145-1.632C11.189,15.444,11.536,16.4,12.965,16.019Z" fill="#ebecf0"/><path d="M4.074,35.688c.521-1.079.464-1.942-.7-2.539A1.812,1.812,0,0,0,5.5,31.575c.4.967.811,1.765,2.138,1.447-.78.758-1.384,1.5-.581,2.647C5.479,35.04,5.479,35.04,4.074,35.688Z" fill="#ececf0"/><path d="M31.867,21.249c.339,1.189.867,1.759,2.113,1.59a1.913,1.913,0,0,0-.734,2.632c-.948-.844-1.778-.948-2.7.015.353-1.087.367-1.968-.8-2.558A1.812,1.812,0,0,0,31.867,21.249Z" fill="#ebecf0"/><path d="M27.962,22.266a1.691,1.691,0,0,0-2.69-.144c.287-1.026.449-1.951-.827-2.5,1.153-.022,1.906-.393,2.111-1.6.433.973.857,1.823,2.163,1.605-.328.3-.813.546-.94.915C27.645,20.927,27.854,21.433,27.962,22.266Z" fill="#ebebf0"/><path d="M10.741,21.306c.4,1.13.931,1.752,1.847,1.507l-.743,2.447c-1.007-.471-1.007-.471-2.484.139a1.6,1.6,0,0,0-.735-2.474C9.724,22.845,10.657,22.712,10.741,21.306Z" fill="#ebecf0"/><path d="M35,19.528c1.3.24,1.79-.454,2.085-1.8.466,1.192.8,2.16,2.2,1.712-.795.8-1.569,1.446-.676,2.636-1-.515-1.832-1.091-2.785.073A1.894,1.894,0,0,0,35,19.528Z" fill="#ececf0"/></g></g></svg>