<svg xmlns="http://www.w3.org/2000/svg" viewBox="0 0 101.093 106.198"><g id="Layer_2" data-name="Layer 2"><g id="Layer_1-2" data-name="Layer 1"><path d="M38.5,21.163a7.66,7.66,0,0,0-5,1.034,17.852,17.852,0,0,0-2.8,2.226,9.4,9.4,0,0,0,1.958,13.948,8.208,8.208,0,0,0,6.054,1.471,13.343,13.343,0,0,0,1.528-.191,9.4,9.4,0,0,0,7.109-9.179c-.044-.512-.077-1.025-.133-1.536A9.312,9.312,0,0,0,38.5,21.163ZM13.413,9.493a1.444,1.444,0,0,1,.365-.152,9.063,9.063,0,0,0,6.375-3.652A8.984,8.984,0,0,0,22.06.063a9.175,9.175,0,0,0-8.047,4.593,32.264,32.264,0,0,0-1.429,3.823A9.33,9.33,0,0,0,3.208.112,9.262,9.262,0,0,0,6.273,6.973a10.849,10.849,0,0,0,5.432,2.52A9.233,9.233,0,0,0,5.47,12.817a9.268,9.268,0,0,0-.722,11.308A9.01,9.01,0,0,0,13.407,28.3,8.914,8.914,0,0,0,21.3,22.636a8.973,8.973,0,0,0-1.466-9.78A9.171,9.171,0,0,0,13.413,9.493ZM64.025.119c-3.791-.76-8.538,2.212-9.743,6.2-1.108,3.669-.517,7.445-.525,11.18,0,.02.053.04.081.06a10.4,10.4,0,0,0-.143,1.827,9.616,9.616,0,0,0,3.358,6.727,9.06,9.06,0,0,0,7.777,2.157c5.488-1.012,8.392-5.781,7.855-11.33-.051-2.82-.012-5.645-.171-8.458A9.17,9.17,0,0,0,64.025.119Z" fill="#fefefd"/><path d="M49.91,106.2l-.512-.406c-.734-1.515-.572-1.989.981-2.876,1.481-.462,2.974-.888,4.429-1.419.245-.09.457-.63.46-.964.033-3.7.021-7.4.021-11.1q0-11.616-.015-23.231a3.441,3.441,0,0,0-.351-1.575,10.28,10.28,0,0,1-1.209-4.658l12.594.045c-.075,3.272-.308,6.506-2.313,9.3a8.1,8.1,0,0,1-4.711-.719c-.248-.095-.485-.217-.863-.389v33.546c0,1.7-.215,1.972-1.832,2.53-1.815.627-3.623,1.276-5.434,1.915Z" fill="#49c8fe"/><path d="M38.511,75.676l-5.381-.728v.927q0,12.9,0,25.79c0,1.845-.163,2.047-1.936,2.653-1.789.611-3.568,1.252-5.351,1.88H24.6l-.516-.4c-.609-1.635-.429-2.109,1.087-2.868,1.413-.447,2.84-.854,4.224-1.376a1.271,1.271,0,0,0,.577-.987c.043-3.314.026-6.629.026-9.944,0-6.043.012-12.086-.019-18.128a4.184,4.184,0,0,0-.426-1.761,8.75,8.75,0,0,1-1.033-4.374l12.469.011c-.068,1.2-.082,2.4-.217,3.59A9.19,9.19,0,0,1,38.511,75.676Z" fill="#b9d071"/><path d="M7.922,88.429c0,4.009.018,8.018-.02,12.027a1.053,1.053,0,0,0,.9,1.226c1.259.357,2.489.818,3.735,1.225.748.243,1.438.549,1.63,1.415.2.893-.423,1.372-.983,1.876H11.941c-1.706-.616-3.405-1.253-5.12-1.842-1.981-.681-2.109-.834-2.109-2.963l0-12.959Z" fill="#a6644a"/><path d="M87.878,106.2c-.575-.5-1.181-.993-.98-1.886.2-.864.889-1.167,1.637-1.409,1.279-.415,2.549-.863,3.834-1.261.523-.162.793-.383.782-1-.047-2.521-.038-5.043-.05-7.565l1.61-.126,1.642.159q0,4.406,0,8.812c0,1.426-.284,1.8-1.624,2.27-1.871.661-3.738,1.337-5.606,2.006Z" fill="#c17c52"/><path d="M83.708,93.112c0,2.973-.017,5.946.015,8.919a1.969,1.969,0,0,1-1.537,2.139c-1.923.627-3.814,1.347-5.719,2.028H75.015l-.305-.4c-.823-1.453-.637-2.008.964-2.875,1.469-.467,2.951-.9,4.4-1.434.248-.092.471-.615.477-.942.04-2.473.023-4.947.024-7.421Z" fill="#df8f4f"/><path d="M83.708,93.112l-3.137.011L79,92.99c-.016-.273-.04-.506-.04-.74q0-19.055,0-38.111c0-.137.018-.275.028-.412l12.6-.046.223.027a7.518,7.518,0,0,0,.568,1.074,11.031,11.031,0,0,1,2.312,6.612c.067,10.518.022,21.038.018,31.557l-1.61.126Z" fill="#4f4f4f"/><path d="M66.308,60.017l-12.594-.045q-.021-9.173-.042-18.344c0-.761-.007-1.521,0-2.281a4.3,4.3,0,0,1,4.574-4.637c1.38-.032,2.762,0,4.143,0a4.479,4.479,0,0,1,3.943,4.822c-.092,6.8-.032,13.594-.031,20.391Z" fill="#fe4229"/><path d="M.023,75.692C.015,71.08-.015,66.467.009,61.855a12.524,12.524,0,0,1,3.178-8.19l4.609.024c.006,3.864,0,7.729.029,11.593a3.186,3.186,0,0,0,.275,1.6,1.9,1.9,0,0,0,1.318.88,2.267,2.267,0,0,0,1.443-.881,2.458,2.458,0,0,0,.23-1.391c.021-3.933.02-7.867.026-11.8l4.76-.045,0,.1q-.008,10.986-.014,21.972Z" fill="#fe4128"/><path d="M72.684,16.939c.538,5.549-2.366,10.318-7.854,11.33a9.06,9.06,0,0,1-7.777-2.157A9.616,9.616,0,0,1,53.7,19.385a10.4,10.4,0,0,1,.143-1.827,9.186,9.186,0,0,1,5.955-7.452A9.366,9.366,0,0,1,72.3,16.583C72.344,16.726,72.554,16.821,72.684,16.939Z" fill="#fecbc4"/><path d="M94.711,92.951c0-10.519.049-21.039-.018-31.557a11.031,11.031,0,0,0-2.312-6.612,7.518,7.518,0,0,1-.568-1.074l6.074-.024a13.269,13.269,0,0,1,3.2,9.036c-.034,9.733-.011,19.466-.011,29.2v1.19H96.353Z" fill="#373737"/><path d="M40.987,66.37l-12.469-.011a9.668,9.668,0,0,1-.107-1.013q-.011-7.035,0-14.07c0-3.365,1.646-4.991,5.037-4.989,1.618,0,3.237.022,4.856.034a2.19,2.19,0,0,0,.393.429,4.447,4.447,0,0,1,2.324,4.164c-.087,4.653-.034,9.309-.018,13.964a9.564,9.564,0,0,0,.21,1.413Z" fill="#515150"/><path d="M78.992,39.014q0-9.542-.005-19.082a2.027,2.027,0,0,1,.128.383,9.379,9.379,0,0,0,9.606,8.05l2.859-.5c.011,1,.026,1.994.031,2.991q.033,5.774.059,11.548l-.06.123a44.1,44.1,0,0,1-5.533.07A12.7,12.7,0,0,1,78.992,39.014Z" fill="#49c8fe"/><path d="M75.674,102.92c-1.6.867-1.787,1.422-.964,2.875-1.965-.625-3.943-1.215-5.89-1.893-.8-.279-.9-1.038-.9-1.811.012-3.9.006-7.8.006-11.707q0-10.464,0-20.928V68.447L64,69.315c2.005-2.792,2.238-6.026,2.313-9.3l-.006-.092,6.273.051A9.125,9.125,0,0,1,71.4,64.629a2.789,2.789,0,0,0-.321,1.264q-.027,17.34-.029,34.681a.943.943,0,0,0,.8,1.078C73.136,102.036,74.4,102.493,75.674,102.92Z" fill="#2face1"/><path d="M72.575,59.976,66.3,59.925c0-6.8-.061-13.595.031-20.391a4.479,4.479,0,0,0-3.943-4.822c1.9,0,3.8-.038,5.7,0,2.793.057,4.527,1.68,4.547,4.435.052,6.843.016,13.687.011,20.531A1.245,1.245,0,0,1,72.575,59.976Z" fill="#cf321e"/><path d="M11.117,53.687c-.006,3.933-.005,7.867-.026,11.8a2.458,2.458,0,0,1-.23,1.391,2.267,2.267,0,0,1-1.443.881,1.9,1.9,0,0,1-1.318-.88,3.186,3.186,0,0,1-.275-1.6C7.8,61.418,7.8,57.553,7.8,53.689V40.465H3.213c0-.654-.042-1.312.006-1.963a3.88,3.88,0,0,1,3.275-3.629c2.082-.188,4.191-.084,6.288-.107,2.523,1.082,3.163,3.189,3.1,5.682l-.219.067H11.117Z" fill="#a56044"/><path d="M40.987,66.37l.223-.079,6.133.036a9.942,9.942,0,0,1-1.281,4.739,2.646,2.646,0,0,0-.274,1.283c-.015,9.365,0,18.731-.029,28.1a1.054,1.054,0,0,0,.888,1.232c1.259.358,2.489.82,3.732,1.239-1.553.887-1.715,1.361-.981,2.876-1.933-.615-3.878-1.2-5.793-1.859-.9-.313-.969-1.14-.968-1.98q.015-11.91.006-23.821V74.776l-4.132.9A9.19,9.19,0,0,0,40.77,69.96C40.905,68.771,40.919,67.567,40.987,66.37Z" fill="#9db55f"/><path d="M38.708,39.842a8.208,8.208,0,0,1-6.054-1.471A9.4,9.4,0,0,1,30.7,24.423,17.852,17.852,0,0,1,33.5,22.2a14.682,14.682,0,0,0,7.467,6.873c.01.046.023.09.037.134-.005,1.066.061,2.139-.031,3.2C40.745,35.034,40.429,37.656,38.708,39.842Z" fill="#fea654"/><path d="M78.992,39.014a12.7,12.7,0,0,0,7.085,3.578,44.1,44.1,0,0,0,5.533-.07L91.589,53.68l-12.6.047Q78.989,46.371,78.992,39.014Z" fill="#7f7f80"/><path d="M13.407,28.3a9.01,9.01,0,0,1-8.659-4.179A9.268,9.268,0,0,1,5.47,12.817c-.1,1.549,2.078,3.047,3.8,2.368a1.166,1.166,0,0,1,1.364.219,3,3,0,0,0,4.21-.151,3.137,3.137,0,0,1,.618-.32c.012.053.025.107.039.16.059,1.542.148,3.084.171,4.628A13.683,13.683,0,0,1,13.407,28.3Z" fill="#a45e43"/><path d="M15.861,75.71q.007-10.986.014-21.972l6.2-.033,0,22.022-6.222.079Z" fill="#ce301b"/><path d="M88.721,28.365a9.379,9.379,0,0,1-9.606-8.05,2.027,2.027,0,0,0-.128-.383q.3-2.091.6-4.182l11.821.054a23.726,23.726,0,0,1-.219,7.66C90.814,25.313,90.47,27.2,88.721,28.365Z" fill="#df8f4f"/><path d="M47.343,66.327l-6.133-.036A9.564,9.564,0,0,1,41,64.878c-.016-4.655-.069-9.311.018-13.964a4.447,4.447,0,0,0-2.324-4.164,2.19,2.19,0,0,1-.393-.429c1.584-.012,3.17-.073,4.752-.022a4.12,4.12,0,0,1,4.3,4.117C47.429,55.719,47.356,61.023,47.343,66.327Z" fill="#373737"/><path d="M66.29,9.981a9.792,9.792,0,0,0-6.5.125,9.186,9.186,0,0,0-5.955,7.452c-.028-.02-.081-.04-.081-.06.008-3.735-.583-7.511.525-11.18,1.205-3.987,5.952-6.959,9.743-6.2a18.937,18.937,0,0,1,1.032,1.888A19.316,19.316,0,0,1,66.29,9.981Z" fill="#fe4229"/><path d="M.023,75.692l15.838.018-.007.1.024,6.259c-.413.017-.827.048-1.24.049q-7.3.01-14.609.014Z" fill="#bace73"/><path d="M.029,82.128q7.305-.006,14.609-.014c.413,0,.827-.032,1.24-.049l0,.088.007,6.2-7.959.079-3.213,0H.029Z" fill="#2face1"/><path d="M91.67,42.4q-.029-5.775-.059-11.548c-.005-1-.02-1.994-.031-2.99A27.608,27.608,0,0,0,94.1,26.469,10.107,10.107,0,0,0,97.837,20.6l0,18.5c-.247.18-.509.344-.741.543A12.155,12.155,0,0,1,91.67,42.4Z" fill="#2face1"/><path d="M22.078,53.705l-6.2.033,0-.1c0-3.9.009-7.808-.008-11.711a9.607,9.607,0,0,0-.211-1.416l.219-.067,6.2-.005Z" fill="#9db55f"/><path d="M91.67,42.4A12.155,12.155,0,0,0,97.1,39.637c.232-.2.494-.363.741-.543q.024,7.294.047,14.59l-6.074.024-.223-.027q.009-5.58.02-11.159Z" fill="#686969"/><path d="M13.407,28.3a13.683,13.683,0,0,0,2.266-8.583c-.023-1.544-.112-3.086-.171-4.628,2.342.552,3.981-.294,4.331-2.237a8.975,8.975,0,0,1,1.465,9.78A8.914,8.914,0,0,1,13.407,28.3Z" fill="#85463e"/><path d="M97.837,20.6A10.107,10.107,0,0,1,94.1,26.469a27.608,27.608,0,0,1-2.515,1.392l-2.859.5c1.749-1.166,2.093-3.052,2.469-4.9a23.726,23.726,0,0,0,.219-7.66l-.009-.077,5.884.011A10.49,10.49,0,0,1,97.837,20.6Z" fill="#c0774a"/><path d="M66.29,9.981a19.316,19.316,0,0,0-1.233-7.974A18.937,18.937,0,0,0,64.025.119a9.17,9.17,0,0,1,8.489,8.362c.159,2.813.12,5.638.171,8.458-.131-.118-.341-.213-.381-.356A9.711,9.711,0,0,0,66.29,9.981Z" fill="#cf311c"/><path d="M24.082,105.8c-1.9-.609-3.808-1.191-5.694-1.841-.89-.307-1.041-1.094-1.039-1.947q.014-6.789,0-13.577l3.161,0c0,4,.02,7.993-.022,11.988a1.1,1.1,0,0,0,.963,1.276c1.257.35,2.48.817,3.717,1.235C23.653,103.688,23.473,104.162,24.082,105.8Z" fill="#85463e"/><path d="M3.213,40.465H7.8V53.689l-4.609-.024Q3.2,47.065,3.213,40.465Z" fill="#b9d071"/><path d="M91.409,15.8,79.588,15.75a9.152,9.152,0,0,1,9.344-6.195,6.994,6.994,0,0,1,1.331,1.75c.493,1.435.771,2.943,1.137,4.422Z" fill="#49c8fe"/><path d="M11.705,9.493a10.849,10.849,0,0,1-5.432-2.52A9.262,9.262,0,0,1,3.208.112a9.33,9.33,0,0,1,9.376,8.367l-.054.845Z" fill="#fe4229"/><path d="M12.53,9.324l.054-.845a32.264,32.264,0,0,1,1.429-3.823A9.175,9.175,0,0,1,22.06.063a8.984,8.984,0,0,1-1.907,5.626,9.063,9.063,0,0,1-6.375,3.652,1.444,1.444,0,0,0-.365.152l-.214.07Z" fill="#b9d071"/><path d="M38.708,39.842c1.721-2.186,2.037-4.808,2.266-7.441.092-1.058.026-2.131.031-3.2a15.609,15.609,0,0,0,6.34,1.268,9.4,9.4,0,0,1-7.109,9.179A13.343,13.343,0,0,1,38.708,39.842Z" fill="#df8f4f"/><path d="M12.53,9.324l.669.239a29.815,29.815,0,0,1,1.65,2.9,14.184,14.184,0,0,1,.614,2.474,3.137,3.137,0,0,0-.618.32,3,3,0,0,1-4.21.151,1.166,1.166,0,0,0-1.364-.219c-1.723.679-3.9-.819-3.8-2.368a9.233,9.233,0,0,1,6.235-3.324Z" fill="#60322d"/><path d="M47.345,30.472a15.609,15.609,0,0,1-6.34-1.268c-.014-.044-.027-.088-.037-.134-.2-2.829-.367-5.669-2.466-7.907a9.312,9.312,0,0,1,8.71,7.773C47.268,29.447,47.3,29.96,47.345,30.472Z" fill="#42231f"/><path d="M15.878,82.065l-.024-6.259,6.221-.079q0,3.2-.008,6.4l-6.193.029Z" fill="#9db55f"/><path d="M15.874,82.153l6.193-.029v6.217l-1.556.089-3.161,0-1.469-.082Q15.878,85.251,15.874,82.153Z" fill="#198fc1"/><path d="M22.077,40.443l-6.2.005c.068-2.493-.572-4.6-3.1-5.682,1.755-.007,3.517-.121,5.262,0a4.122,4.122,0,0,1,4.062,4.436C22.11,39.618,22.087,40.03,22.077,40.443Z" fill="#85463e"/><path d="M38.5,21.163c2.1,2.238,2.266,5.078,2.466,7.907A14.682,14.682,0,0,1,33.5,22.2,7.66,7.66,0,0,1,38.5,21.163Z" fill="#60322d"/><path d="M91.4,15.727c-.366-1.479-.644-2.987-1.137-4.422a6.994,6.994,0,0,0-1.331-1.75,9.155,9.155,0,0,1,8.352,6.183Z" fill="#2face1"/><path d="M15.463,14.933a14.184,14.184,0,0,0-.614-2.474,29.815,29.815,0,0,0-1.65-2.9l.214-.07a9.175,9.175,0,0,1,6.42,3.363c-.35,1.943-1.989,2.789-4.331,2.237C15.488,15.04,15.475,14.986,15.463,14.933Z" fill="#42231f"/><path d="M15.658,40.515a9.607,9.607,0,0,1,.211,1.416c.017,3.9.009,7.807.008,11.711l-4.76.045V40.515Z" fill="#b9d071"/></g></g></svg>